<svg width="375" height="468" viewBox="0 0 375 468" fill="none" xmlns="http://www.w3.org/2000/svg">
<path d="M-1.61371 402.956C55.6718 436.412 120.825 454.029 187.165 454C253.504 453.971 318.642 436.297 375.898 402.79L374.629 400.621C317.757 433.902 253.057 451.457 187.164 451.486C121.27 451.515 56.5545 434.017 -0.345978 400.786L-1.61371 402.956Z" fill="#E0E6F3"/>
<path d="M168 449C168 438.507 176.507 430 187 430C197.493 430 206 438.507 206 449C206 459.493 197.493 468 187 468C176.507 468 168 459.493 168 449Z" fill="url(#paint0_linear_782_1089)"/>
<g clip-path="url(#clip0_782_1089)">
<path d="M176.882 449.003L182.097 443.788C182.277 443.608 182.277 443.316 182.097 443.135C181.917 442.955 181.624 442.955 181.444 443.135L175.903 448.676C175.723 448.857 175.723 449.149 175.903 449.329L181.444 454.87C181.628 455.048 181.92 455.042 182.097 454.859C182.27 454.68 182.27 454.396 182.097 454.217L176.882 449.003Z" fill="white"/>
</g>
<g clip-path="url(#clip1_782_1089)">
<path d="M197.118 449.003L191.903 443.788C191.723 443.608 191.723 443.316 191.903 443.135C192.083 442.955 192.376 442.955 192.556 443.135L198.097 448.676C198.277 448.857 198.277 449.149 198.097 449.329L192.556 454.87C192.372 455.048 192.08 455.042 191.903 454.859C191.73 454.68 191.73 454.396 191.903 454.217L197.118 449.003Z" fill="white"/>
</g>
<defs>
<linearGradient id="paint0_linear_782_1089" x1="178.24" y1="430" x2="173.845" y2="465.574" gradientUnits="userSpaceOnUse">
<stop stop-color="#9FE860"/>
<stop offset="1" stop-color="#50CE3B"/>
</linearGradient>
<clipPath id="clip0_782_1089">
<rect width="12" height="12" fill="white" transform="translate(173 443)"/>
</clipPath>
<clipPath id="clip1_782_1089">
<rect width="12" height="12" fill="white" transform="matrix(-1 0 0 1 201 443)"/>
</clipPath>
</defs>
</svg>
